<svg width="30" height="30" viewBox="0 0 30 30" fill="none" xmlns="http://www.w3.org/2000/svg">
<g id="Frame">
<g clip-path="url(#clip0_22_71)">
<g id="SVGRepo_iconCarrier">
<g id="Vector" filter="url(#filter0_d_22_71)">
<path fill-rule="evenodd" clip-rule="evenodd" d="M30 15C30 23.2842 23.2842 30 15 30C6.71572 30 0 23.2842 0 15C0 6.71572 6.71572 0 15 0C23.2842 0 30 6.71572 30 15ZM21.0455 10.4545C21.4848 10.8938 21.4848 11.6062 21.0455 12.0455L13.5455 19.5455C13.1061 19.9848 12.3939 19.9848 11.9545 19.5455L8.9545 16.5455C8.51517 16.1061 8.51517 15.3939 8.9545 14.9545C9.39384 14.5152 10.1062 14.5152 10.5455 14.9545L12.75 17.1589L16.1022 13.8068L19.4545 10.4545C19.8939 10.0152 20.6061 10.0152 21.0455 10.4545Z" fill="#096A81"/>
</g>
</g>
</g>
</g>
<defs>
<filter id="filter0_d_22_71" x="-4" y="0" width="38" height="38" filterUnits="userSpaceOnUse" color-interpolation-filters="sRGB">
<feFlood flood-opacity="0" result="BackgroundImageFix"/>
<feColorMatrix in="SourceAlpha" type="matrix" values="0 0 0 0 0 0 0 0 0 0 0 0 0 0 0 0 0 0 127 0" result="hardAlpha"/>
<feOffset dy="4"/>
<feGaussianBlur stdDeviation="2"/>
<feComposite in2="hardAlpha" operator="out"/>
<feColorMatrix type="matrix" values="0 0 0 0 0 0 0 0 0 0 0 0 0 0 0 0 0 0 0.25 0"/>
<feBlend mode="normal" in2="BackgroundImageFix" result="effect1_dropShadow_22_71"/>
<feBlend mode="normal" in="SourceGraphic" in2="effect1_dropShadow_22_71" result="shape"/>
</filter>
<clipPath id="clip0_22_71">
<path d="M0 8C0 3.58172 3.58172 0 8 0H22C26.4183 0 30 3.58172 30 8V22C30 26.4183 26.4183 30 22 30H8C3.58172 30 0 26.4183 0 22V8Z" fill="white"/>
</clipPath>
</defs>
</svg>
