<svg width="32" height="30" viewBox="0 0 32 30" fill="none" xmlns="http://www.w3.org/2000/svg">
<g id="Group">
<path id="Vector" d="M24.3499 2.72727H29.3499C29.792 2.72727 30.2159 2.87094 30.5284 3.12667C30.841 3.3824 31.0166 3.72925 31.0166 4.09091V28.6364C31.0166 28.998 30.841 29.3449 30.5284 29.6006C30.2159 29.8563 29.792 30 29.3499 30H2.68327C2.24124 30 1.81732 29.8563 1.50476 29.6006C1.1922 29.3449 1.0166 28.998 1.0166 28.6364V4.09091C1.0166 3.72925 1.1922 3.3824 1.50476 3.12667C1.81732 2.87094 2.24124 2.72727 2.68327 2.72727H7.68327V0H11.0166V2.72727H21.0166V0H24.3499V2.72727ZM7.68327 10.9091V13.6364H24.3499V10.9091H7.68327ZM7.68327 16.3636V19.0909H24.3499V16.3636H7.68327Z" fill="#BF7F40"/>
</g>
</svg>
